<svg width="160" height="54" viewBox="0 0 160 54" fill="none" xmlns="http://www.w3.org/2000/svg">
<g opacity="0.8">
<path d="M48.5124 50.3411C48.3765 50.3411 48.2701 50.3011 48.1952 50.2211C48.1267 50.1341 48.0925 50.0181 48.0925 49.8731V43.0551C48.0925 42.9031 48.1304 42.7901 48.2054 42.7181C48.2803 42.6381 48.3866 42.5981 48.5226 42.5981H50.9513C51.7235 42.5981 52.3182 42.7901 52.7344 43.1751C53.1515 43.5591 53.3596 44.1061 53.3596 44.8171C53.3596 45.2661 53.2643 45.6581 53.0729 45.9911C52.8888 46.3171 52.6151 46.5681 52.2534 46.7421C51.8909 46.9081 51.4572 46.9921 50.9513 46.9921L51.0539 46.8501H51.2592C51.5256 46.8501 51.7577 46.9231 51.9557 47.0681C52.1545 47.2131 52.3348 47.4451 52.4995 47.7641L53.4826 49.7101C53.5372 49.8121 53.5612 49.9131 53.5547 50.0151C53.5547 50.1091 53.5242 50.1891 53.4622 50.2541C53.4012 50.3121 53.3124 50.3411 53.1959 50.3411C53.0803 50.3411 52.9841 50.3121 52.9092 50.2541C52.8343 50.1961 52.7686 50.1131 52.714 50.0041L51.5977 47.8071C51.4405 47.4961 51.2592 47.2891 51.0539 47.1871C50.8495 47.0791 50.5795 47.0241 50.2447 47.0241H48.9332V49.8731C48.9332 50.0181 48.899 50.1341 48.8306 50.2211C48.7621 50.3011 48.6558 50.3411 48.5124 50.3411ZM48.9332 46.3171H50.8292C51.3887 46.3171 51.8123 46.1941 52.0999 45.9481C52.3866 45.6941 52.53 45.3171 52.53 44.8171C52.53 44.3311 52.3866 43.9651 52.0999 43.7181C51.8123 43.4651 51.3887 43.3381 50.8292 43.3381H48.9332V46.3171Z" fill="white"/>
<path d="M56.2284 50.2651C56.0786 50.2651 55.9621 50.2251 55.8807 50.1451C55.8048 50.0581 55.7678 49.9351 55.7678 49.7761V43.0881C55.7678 42.9281 55.8048 42.8091 55.8807 42.7291C55.9621 42.6421 56.0786 42.5981 56.2284 42.5981H60.0407C60.1572 42.5981 60.246 42.6311 60.307 42.6961C60.369 42.7611 60.3995 42.8521 60.3995 42.9681C60.3995 43.0911 60.369 43.1861 60.307 43.2511C60.246 43.3161 60.1572 43.3491 60.0407 43.3491H56.5872V46.0021H59.8261C59.9417 46.0021 60.0305 46.0351 60.0925 46.1001C60.1535 46.1581 60.184 46.2491 60.184 46.3721C60.184 46.4951 60.1535 46.5891 60.0925 46.6551C60.0305 46.7201 59.9417 46.7521 59.8261 46.7521H56.5872V49.5151H60.0407C60.1572 49.5151 60.246 49.5471 60.307 49.6121C60.369 49.6781 60.3995 49.7681 60.3995 49.8841C60.3995 50.0081 60.369 50.1021 60.307 50.1671C60.246 50.2321 60.1572 50.2651 60.0407 50.2651H56.2284Z" fill="white"/>
<path d="M62.9826 50.3411C62.8457 50.3411 62.7393 50.3011 62.6644 50.2211C62.596 50.1341 62.5618 50.0181 62.5618 49.8731V43.0551C62.5618 42.9031 62.5997 42.7901 62.6746 42.7181C62.7495 42.6381 62.8559 42.5981 62.9927 42.5981H65.4214C66.1927 42.5981 66.7874 42.8011 67.2045 43.2071C67.6207 43.6061 67.8297 44.1721 67.8297 44.9041C67.8297 45.6291 67.6207 46.1941 67.2045 46.6001C66.7874 47.0061 66.1927 47.2091 65.4214 47.2091H63.4025V49.8731C63.4025 50.0181 63.3682 50.1341 63.2998 50.2211C63.2314 50.3011 63.1259 50.3411 62.9826 50.3411ZM63.4025 46.4591H65.3188C65.8718 46.4591 66.2889 46.3281 66.5692 46.0671C66.8559 45.7991 66.9992 45.4111 66.9992 44.9041C66.9992 44.3891 66.8559 44.0011 66.5692 43.7401C66.2889 43.4721 65.8718 43.3381 65.3188 43.3381H63.4025V46.4591Z" fill="white"/>
<path d="M68.9821 50.341C68.8729 50.341 68.7841 50.316 68.7157 50.265C68.6546 50.207 68.6167 50.134 68.6038 50.047C68.5964 49.953 68.6167 49.848 68.6648 49.732L71.4829 42.925C71.5448 42.78 71.616 42.678 71.6983 42.62C71.7871 42.555 71.8824 42.522 71.985 42.522C72.0877 42.522 72.1802 42.555 72.2616 42.62C72.3504 42.678 72.4225 42.78 72.4771 42.925L75.3053 49.732C75.3598 49.848 75.3802 49.953 75.3672 50.047C75.3598 50.142 75.3256 50.214 75.2646 50.265C75.2026 50.316 75.1175 50.341 75.0084 50.341C74.8854 50.341 74.7864 50.308 74.7115 50.243C74.6357 50.171 74.5746 50.069 74.5266 49.939L73.7682 48.079L74.1779 48.307H69.7719L70.1918 48.079L69.4435 49.939C69.3825 50.076 69.3168 50.178 69.2493 50.243C69.1809 50.308 69.0921 50.341 68.9821 50.341ZM71.9749 43.642L70.3249 47.764L70.0789 47.557H73.8708L73.6452 47.764L71.9952 43.642H71.9749Z" fill="white"/>
<path d="M77.8423 50.341C77.7054 50.341 77.5999 50.301 77.5241 50.221C77.4557 50.134 77.4224 50.018 77.4224 49.873V42.99C77.4224 42.838 77.4557 42.722 77.5241 42.642C77.5999 42.562 77.7054 42.522 77.8423 42.522C77.9791 42.522 78.0809 42.562 78.1493 42.642C78.2251 42.722 78.2621 42.838 78.2621 42.99V49.873C78.2621 50.018 78.2279 50.134 78.1595 50.221C78.091 50.301 77.9856 50.341 77.8423 50.341Z" fill="white"/>
<path d="M81.2939 50.3411C81.157 50.3411 81.0516 50.3011 80.9767 50.2211C80.9082 50.1341 80.874 50.0181 80.874 49.8731V43.0551C80.874 42.9031 80.911 42.7901 80.9869 42.7181C81.0618 42.6381 81.1681 42.5981 81.3041 42.5981H83.7327C84.505 42.5981 85.0997 42.7901 85.5159 43.1751C85.933 43.5591 86.1411 44.1061 86.1411 44.8171C86.1411 45.2661 86.0458 45.6581 85.8544 45.9911C85.6703 46.3171 85.3966 46.5681 85.0349 46.7421C84.6724 46.9081 84.2386 46.9921 83.7327 46.9921L83.8354 46.8501H84.0407C84.3071 46.8501 84.5392 46.9231 84.7371 47.0681C84.935 47.2131 85.1163 47.4451 85.281 47.7641L86.2641 49.7101C86.3186 49.8121 86.3427 49.9131 86.3362 50.0151C86.3362 50.1091 86.3057 50.1891 86.2437 50.2541C86.1827 50.3121 86.0939 50.3411 85.9774 50.3411C85.8608 50.3411 85.7656 50.3121 85.6907 50.2541C85.6148 50.1961 85.5501 50.1131 85.4955 50.0041L84.3783 47.8071C84.222 47.4961 84.0407 47.2891 83.8354 47.1871C83.631 47.0791 83.361 47.0241 83.0262 47.0241H81.7138V49.8731C81.7138 50.0181 81.6805 50.1341 81.612 50.2211C81.5436 50.3011 81.4373 50.3411 81.2939 50.3411ZM81.7138 46.3171H83.6097C84.1702 46.3171 84.5938 46.1941 84.8805 45.9481C85.1681 45.6941 85.3115 45.3171 85.3115 44.8171C85.3115 44.3311 85.1681 43.9651 84.8805 43.7181C84.5938 43.4651 84.1702 43.3381 83.6097 43.3381H81.7138V46.3171Z" fill="white"/>
<path d="M94.3473 50.363C94.0263 50.363 93.7119 50.334 93.4048 50.276C93.0969 50.218 92.8102 50.134 92.5438 50.026C92.2839 49.917 92.0481 49.779 91.8363 49.612C91.7549 49.547 91.6966 49.475 91.6624 49.395C91.6347 49.308 91.6282 49.225 91.6421 49.145C91.6624 49.058 91.6966 48.985 91.7447 48.927C91.7993 48.869 91.864 48.837 91.9389 48.829C92.0139 48.822 92.0962 48.848 92.185 48.906C92.4929 49.138 92.8203 49.308 93.169 49.417C93.5177 49.518 93.9098 49.569 94.3473 49.569C94.9623 49.569 95.4164 49.449 95.7105 49.21C96.0111 48.964 96.1609 48.641 96.1609 48.242C96.1609 47.916 96.0518 47.662 95.8335 47.481C95.6217 47.293 95.2629 47.144 94.757 47.035L93.6915 46.807C93.0497 46.662 92.5679 46.426 92.2469 46.1C91.9325 45.766 91.7752 45.324 91.7752 44.773C91.7752 44.433 91.84 44.124 91.9695 43.849C92.0999 43.566 92.2811 43.327 92.5133 43.131C92.7454 42.928 93.022 42.772 93.3429 42.664C93.6638 42.555 94.0199 42.5 94.4092 42.5C94.8393 42.5 95.2388 42.566 95.6079 42.696C95.9833 42.819 96.3218 43.008 96.6224 43.262C96.6973 43.327 96.7491 43.403 96.7759 43.49C96.8037 43.57 96.8065 43.65 96.7861 43.729C96.7658 43.802 96.7288 43.863 96.6733 43.914C96.6261 43.965 96.5614 43.994 96.4791 44.001C96.4041 44.008 96.3181 43.979 96.2229 43.914C95.9491 43.697 95.6661 43.541 95.372 43.447C95.0788 43.345 94.7542 43.294 94.3991 43.294C94.0365 43.294 93.7221 43.352 93.4557 43.468C93.1958 43.584 92.9914 43.755 92.8407 43.979C92.6973 44.197 92.6261 44.451 92.6261 44.741C92.6261 45.089 92.7251 45.364 92.923 45.567C93.1283 45.77 93.4594 45.919 93.9172 46.013L94.9826 46.252C95.6726 46.404 96.1822 46.636 96.5096 46.948C96.8444 47.253 97.0118 47.67 97.0118 48.199C97.0118 48.518 96.9507 48.811 96.8277 49.08C96.7047 49.348 96.5271 49.58 96.2941 49.776C96.0619 49.964 95.7817 50.109 95.4543 50.211C95.126 50.312 94.757 50.363 94.3473 50.363Z" fill="white"/>
<path d="M99.5968 50.2651C99.446 50.2651 99.3304 50.2251 99.2481 50.1451C99.1732 50.0581 99.1353 49.9351 99.1353 49.7761V43.0881C99.1353 42.9281 99.1732 42.8091 99.2481 42.7291C99.3304 42.6421 99.446 42.5981 99.5968 42.5981H103.409C103.526 42.5981 103.614 42.6311 103.675 42.6961C103.737 42.7611 103.768 42.8521 103.768 42.9681C103.768 43.0911 103.737 43.1861 103.675 43.2511C103.614 43.3161 103.526 43.3491 103.409 43.3491H99.9556V46.0021H103.194C103.31 46.0021 103.399 46.0351 103.46 46.1001C103.522 46.1581 103.552 46.2491 103.552 46.3721C103.552 46.4951 103.522 46.5891 103.46 46.6551C103.399 46.7201 103.31 46.7521 103.194 46.7521H99.9556V49.5151H103.409C103.526 49.5151 103.614 49.5471 103.675 49.6121C103.737 49.6781 103.768 49.7681 103.768 49.8841C103.768 50.0081 103.737 50.1021 103.675 50.1671C103.614 50.2321 103.526 50.2651 103.409 50.2651H99.5968Z" fill="white"/>
<path d="M106.35 50.3411C106.213 50.3411 106.108 50.3011 106.033 50.2211C105.964 50.1341 105.93 50.0181 105.93 49.8731V43.0551C105.93 42.9031 105.968 42.7901 106.043 42.7181C106.118 42.6381 106.224 42.5981 106.36 42.5981H108.789C109.561 42.5981 110.156 42.7901 110.572 43.1751C110.989 43.5591 111.197 44.1061 111.197 44.8171C111.197 45.2661 111.102 45.6581 110.911 45.9911C110.726 46.3171 110.453 46.5681 110.091 46.7421C109.729 46.9081 109.295 46.9921 108.789 46.9921L108.892 46.8501H109.097C109.363 46.8501 109.595 46.9231 109.793 47.0681C109.991 47.2131 110.172 47.4451 110.337 47.7641L111.32 49.7101C111.375 49.8121 111.399 49.9131 111.392 50.0151C111.392 50.1091 111.362 50.1891 111.3 50.2541C111.239 50.3121 111.15 50.3411 111.034 50.3411C110.917 50.3411 110.822 50.3121 110.747 50.2541C110.671 50.1961 110.606 50.1131 110.552 50.0041L109.434 47.8071C109.278 47.4961 109.097 47.2891 108.892 47.1871C108.687 47.0791 108.417 47.0241 108.082 47.0241H106.77V49.8731C106.77 50.0181 106.737 50.1341 106.668 50.2211C106.6 50.3011 106.493 50.3411 106.35 50.3411ZM106.77 46.3171H108.666C109.226 46.3171 109.65 46.1941 109.937 45.9481C110.224 45.6941 110.368 45.3171 110.368 44.8171C110.368 44.3311 110.224 43.9651 109.937 43.7181C109.65 43.4651 109.226 43.3381 108.666 43.3381H106.77V46.3171Z" fill="white"/>
<path d="M116.139 50.341C116.009 50.341 115.904 50.308 115.821 50.243C115.739 50.178 115.674 50.08 115.626 49.95L112.808 43.109C112.76 42.986 112.747 42.885 112.768 42.805C112.788 42.718 112.832 42.649 112.901 42.598C112.976 42.548 113.062 42.522 113.157 42.522C113.286 42.522 113.383 42.555 113.444 42.62C113.512 42.678 113.567 42.765 113.607 42.881L116.313 49.547H115.985L118.68 42.87C118.728 42.761 118.787 42.678 118.855 42.62C118.923 42.555 119.019 42.522 119.142 42.522C119.237 42.522 119.316 42.548 119.378 42.598C119.446 42.649 119.487 42.718 119.501 42.805C119.521 42.892 119.507 42.993 119.459 43.109L116.641 49.95C116.594 50.08 116.528 50.178 116.447 50.243C116.372 50.308 116.269 50.341 116.139 50.341Z" fill="white"/>
<path d="M121.8 50.341C121.664 50.341 121.558 50.301 121.482 50.221C121.415 50.134 121.381 50.018 121.381 49.873V42.99C121.381 42.838 121.415 42.722 121.482 42.642C121.558 42.562 121.664 42.522 121.8 42.522C121.937 42.522 122.039 42.562 122.108 42.642C122.183 42.722 122.22 42.838 122.22 42.99V49.873C122.22 50.018 122.186 50.134 122.118 50.221C122.05 50.301 121.944 50.341 121.8 50.341Z" fill="white"/>
<path d="M127.957 50.363C127.247 50.363 126.639 50.203 126.134 49.884C125.629 49.565 125.238 49.112 124.965 48.525C124.699 47.938 124.566 47.238 124.566 46.426C124.566 45.817 124.641 45.273 124.792 44.795C124.948 44.309 125.171 43.9 125.457 43.566C125.751 43.225 126.109 42.964 126.533 42.783C126.957 42.595 127.432 42.5 127.957 42.5C128.381 42.5 128.784 42.566 129.167 42.696C129.55 42.819 129.881 43.004 130.161 43.251C130.25 43.323 130.308 43.407 130.335 43.501C130.369 43.588 130.373 43.675 130.345 43.762C130.325 43.842 130.284 43.911 130.222 43.969C130.168 44.019 130.099 44.045 130.018 44.045C129.936 44.045 129.843 44.008 129.741 43.936C129.495 43.726 129.225 43.57 128.931 43.468C128.637 43.367 128.32 43.316 127.979 43.316C127.439 43.316 126.981 43.439 126.605 43.686C126.23 43.925 125.946 44.277 125.754 44.741C125.563 45.205 125.468 45.766 125.468 46.426C125.468 47.086 125.563 47.651 125.754 48.123C125.946 48.587 126.23 48.942 126.605 49.188C126.981 49.428 127.439 49.547 127.979 49.547C128.313 49.547 128.631 49.496 128.931 49.395C129.232 49.286 129.508 49.127 129.762 48.916C129.863 48.844 129.956 48.811 130.038 48.819C130.12 48.819 130.188 48.844 130.243 48.895C130.298 48.945 130.335 49.011 130.355 49.09C130.383 49.17 130.383 49.254 130.355 49.341C130.335 49.428 130.284 49.504 130.202 49.569C129.915 49.83 129.577 50.029 129.187 50.167C128.805 50.298 128.395 50.363 127.957 50.363Z" fill="white"/>
<path d="M133.009 50.2651C132.858 50.2651 132.742 50.2251 132.66 50.1451C132.585 50.0581 132.547 49.9351 132.547 49.7761V43.0881C132.547 42.9281 132.585 42.8091 132.66 42.7291C132.742 42.6421 132.858 42.5981 133.009 42.5981H136.821C136.937 42.5981 137.026 42.6311 137.088 42.6961C137.149 42.7611 137.179 42.8521 137.179 42.9681C137.179 43.0911 137.149 43.1861 137.088 43.2511C137.026 43.3161 136.937 43.3491 136.821 43.3491H133.367V46.0021H136.606C136.721 46.0021 136.81 46.0351 136.872 46.1001C136.933 46.1581 136.964 46.2491 136.964 46.3721C136.964 46.4951 136.933 46.5891 136.872 46.6551C136.81 46.7201 136.721 46.7521 136.606 46.7521H133.367V49.5151H136.821C136.937 49.5151 137.026 49.5471 137.088 49.6121C137.149 49.6781 137.179 49.7681 137.179 49.8841C137.179 50.0081 137.149 50.1021 137.088 50.1671C137.026 50.2321 136.937 50.2651 136.821 50.2651H133.009Z" fill="white"/>
</g>
<path d="M51.8428 33.9137V28.6351H58.0329C59.5422 28.6351 60.8639 28.3163 61.9959 27.6788C63.1279 27.0158 64 26.0595 64.6132 24.81C65.2264 23.5605 65.5334 22.0815 65.5334 20.3729C65.5334 18.6644 65.2144 17.1981 64.5781 15.9741C63.9649 14.7501 63.0918 13.8066 61.9598 13.1436C60.8518 12.4805 59.5422 12.149 58.0329 12.149H51.6653V6.90869H58.1041C59.9908 6.90869 61.724 7.24019 63.3045 7.90319C64.9082 8.54069 66.2992 9.4715 67.4784 10.6955C68.6816 11.894 69.601 13.3221 70.2382 14.9796C70.8985 16.6116 71.2287 18.4221 71.2287 20.4112C71.2287 22.3747 70.8985 24.1853 70.2382 25.8428C69.601 27.5003 68.6937 28.9283 67.5145 30.1269C66.3353 31.3254 64.9434 32.2562 63.3397 32.9192C61.76 33.5822 60.038 33.9137 58.1744 33.9137H51.8428ZM48.0925 33.9137V6.90869H53.6463V33.9137H48.0925Z" fill="white"/>
<path d="M103.581 33.9137V6.90869H109.136V33.9137H103.581ZM107.826 23.3182V18.1544H120.314V23.3182H107.826ZM107.826 12.0725V6.90869H120.88V12.0725H107.826Z" fill="white"/>
<path d="M125.863 33.9137V6.90869H131.417V33.9137H125.863Z" fill="white"/>
<path d="M153.491 33.9137L146.521 21.8647H145.85L136.227 6.90869H142.842L149.705 18.2309H150.378L160 33.9137H153.491ZM135.767 33.9137L145.001 19.4549L149.281 22.056L142.099 33.9137H135.767ZM150.59 21.1762L146.309 18.5752L153.243 6.90869H159.575L150.59 21.1762Z" fill="white"/>
<path fill-rule="evenodd" clip-rule="evenodd" d="M87.3111 12.9528C83.2253 12.9528 79.9131 16.5342 79.9131 20.9519C79.9131 25.3697 83.2253 28.9511 87.3111 28.9511C91.3969 28.9511 94.7091 25.3697 94.7091 20.9519C94.7091 16.5342 91.3969 12.9528 87.3111 12.9528ZM74.8325 20.9519C74.8325 13.5003 80.4194 7.45947 87.3111 7.45947C94.2028 7.45947 99.7897 13.5003 99.7897 20.9519C99.7897 28.4036 94.2028 34.4444 87.3111 34.4444C80.4194 34.4444 74.8325 28.4036 74.8325 20.9519Z" fill="white"/>
<path fill-rule="evenodd" clip-rule="evenodd" d="M7.21475 15.2332C11.7188 9.7136 17.1893 4.5763 19.335 0C29.9098 10.5039 17.7664 14.7998 11.1879 24.6664C7.23881 30.5812 7.76968 36.8912 12.5678 42.028C2.64043 37.6815 3.12412 24.1437 7.21475 15.2332Z" fill="url(#paint0_linear_1813_628)"/>
<path fill-rule="evenodd" clip-rule="evenodd" d="M8.33479 49.728C3.31282 46.082 0 39.8865 0 32.8499C0 27.3175 1.7563 22.9451 4.23214 19.2483C5.14035 17.8971 6.15398 16.5586 7.22681 15.2456C2.99468 24.3728 5.83583 40.7023 16.3403 43.545C19.4414 44.386 23.0132 43.876 25.5602 42.041C30.6996 38.3185 30.6414 32.7351 29.1672 27.037C35.4275 30.772 33.9653 45.712 25.1829 52.328C19.5829 54.074 13.157 53.22 8.33479 49.728Z" fill="url(#paint1_linear_1813_628)"/>
<path fill-rule="evenodd" clip-rule="evenodd" d="M27.8355 25.215C23.226 30.3394 20.4671 33.5008 17.2246 39.2754C11.6486 36.3945 11.5654 31.5632 14.4658 27.2163C17.2366 23.0479 22.3529 18.1274 25.8664 14.2266C27.0456 12.9264 27.4461 12.1361 27.3638 10.3896C29.8165 13.1558 32.457 16.2662 34.4491 19.2491C36.9018 22.9459 38.6701 27.3183 38.6701 32.8507C38.6701 39.8873 35.3573 46.083 30.3344 49.728C28.7668 50.863 27.0216 51.73 25.195 52.303C31.5608 45.356 32.9517 33.4498 27.8355 25.215Z" fill="url(#paint2_linear_1813_628)"/>
<defs>
<linearGradient id="paint0_linear_1813_628" x1="-29.7332" y1="61.017" x2="56.6065" y2="-3.64588" gradientUnits="userSpaceOnUse">
<stop stop-color="#A6A6A6"/>
<stop offset="1" stop-color="white"/>
</linearGradient>
<linearGradient id="paint1_linear_1813_628" x1="30.388" y1="50.151" x2="7.34299" y2="30.2758" gradientUnits="userSpaceOnUse">
<stop stop-color="#A6A6A6"/>
<stop offset="1" stop-color="white"/>
</linearGradient>
<linearGradient id="paint2_linear_1813_628" x1="17.9904" y1="20.4394" x2="36.3819" y2="40.7097" gradientUnits="userSpaceOnUse">
<stop stop-color="white"/>
<stop offset="1" stop-color="#A6A6A6"/>
</linearGradient>
</defs>
</svg>
