<svg width="160" height="50" viewBox="0 0 160 50" fill="none" xmlns="http://www.w3.org/2000/svg">
<g opacity="0.8">
<path d="M48.5128 46.5557C48.3768 46.5557 48.2705 46.5187 48.1955 46.4447C48.1271 46.3643 48.0929 46.257 48.0929 46.1228V39.8172C48.0929 39.6766 48.1308 39.5721 48.2057 39.5055C48.2806 39.4315 48.387 39.3945 48.5229 39.3945H50.9516C51.7239 39.3945 52.3186 39.5721 52.7347 39.9282C53.1519 40.2833 53.36 40.7892 53.36 41.4468C53.36 41.862 53.2647 42.2246 53.0732 42.5326C52.8892 42.8341 52.6154 43.0662 52.2538 43.2271C51.8913 43.3807 51.4575 43.4584 50.9516 43.4584L51.0543 43.327H51.2596C51.526 43.327 51.7581 43.3945 51.956 43.5286C52.1549 43.6627 52.3352 43.8773 52.4998 44.1723L53.483 45.9721C53.5375 46.0664 53.5616 46.1599 53.5551 46.2542C53.5551 46.3411 53.5246 46.4151 53.4626 46.4752C53.4016 46.5289 53.3128 46.5557 53.1963 46.5557C53.0806 46.5557 52.9844 46.5289 52.9095 46.4752C52.8346 46.4216 52.769 46.3448 52.7144 46.244L51.5981 44.2121C51.4409 43.9245 51.2596 43.733 51.0543 43.6387C50.8499 43.5388 50.5798 43.4879 50.245 43.4879H48.9336V46.1228C48.9336 46.257 48.8994 46.3643 48.8309 46.4447C48.7625 46.5187 48.6561 46.5557 48.5128 46.5557ZM48.9336 42.8341H50.8295C51.3891 42.8341 51.8127 42.7203 52.1003 42.4928C52.387 42.2579 52.5304 41.9092 52.5304 41.4468C52.5304 40.9973 52.387 40.6588 52.1003 40.4304C51.8127 40.1964 51.3891 40.0789 50.8295 40.0789H48.9336V42.8341Z" fill="#141414"/>
<path d="M56.2286 46.4854C56.0788 46.4854 55.9623 46.4484 55.8809 46.3744C55.8051 46.2939 55.7681 46.1802 55.7681 46.0332V39.8477C55.7681 39.6998 55.8051 39.5897 55.8809 39.5157C55.9623 39.4352 56.0788 39.3945 56.2286 39.3945H60.0409C60.1574 39.3945 60.2462 39.4251 60.3073 39.4852C60.3692 39.5453 60.3998 39.6294 60.3998 39.7367C60.3998 39.8505 60.3692 39.9384 60.3073 39.9985C60.2462 40.0586 60.1574 40.0891 60.0409 40.0891H56.5875V42.5428H59.8263C59.9419 42.5428 60.0307 42.5733 60.0927 42.6334C60.1537 42.687 60.1843 42.7712 60.1843 42.885C60.1843 42.9987 60.1537 43.0856 60.0927 43.1467C60.0307 43.2068 59.9419 43.2364 59.8263 43.2364H56.5875V45.7918H60.0409C60.1574 45.7918 60.2462 45.8214 60.3073 45.8815C60.3692 45.9425 60.3998 46.0258 60.3998 46.133C60.3998 46.2477 60.3692 46.3346 60.3073 46.3948C60.2462 46.4549 60.1574 46.4854 60.0409 46.4854H56.2286Z" fill="#141414"/>
<path d="M62.9829 46.5557C62.8461 46.5557 62.7397 46.5187 62.6648 46.4447C62.5963 46.3643 62.5621 46.257 62.5621 46.1228V39.8172C62.5621 39.6766 62.6 39.5721 62.675 39.5055C62.7499 39.4315 62.8562 39.3945 62.9931 39.3945H65.4218C66.1931 39.3945 66.7878 39.5823 67.2049 39.9578C67.6211 40.3268 67.8301 40.8503 67.8301 41.5272C67.8301 42.1978 67.6211 42.7203 67.2049 43.0958C66.7878 43.4713 66.1931 43.6591 65.4218 43.6591H63.4028V46.1228C63.4028 46.257 63.3686 46.3643 63.3002 46.4447C63.2317 46.5187 63.1263 46.5557 62.9829 46.5557ZM63.4028 42.9654H65.3191C65.8722 42.9654 66.2893 42.8442 66.5695 42.6028C66.8562 42.355 66.9996 41.9961 66.9996 41.5272C66.9996 41.0509 66.8562 40.6921 66.5695 40.4507C66.2893 40.2029 65.8722 40.0789 65.3191 40.0789H63.4028V42.9654Z" fill="#141414"/>
<path d="M68.9818 46.5571C68.8727 46.5571 68.7839 46.534 68.7154 46.4869C68.6544 46.4332 68.6165 46.3657 68.6035 46.2852C68.5961 46.1983 68.6165 46.1012 68.6646 45.9939L71.4826 39.6984C71.5446 39.5643 71.6158 39.47 71.6981 39.4163C71.7869 39.3562 71.8821 39.3257 71.9848 39.3257C72.0875 39.3257 72.1799 39.3562 72.2613 39.4163C72.3501 39.47 72.4223 39.5643 72.4768 39.6984L75.305 45.9939C75.3596 46.1012 75.3799 46.1983 75.367 46.2852C75.3596 46.3731 75.3254 46.4397 75.2643 46.4869C75.2024 46.534 75.1173 46.5571 75.0082 46.5571C74.8851 46.5571 74.7862 46.5266 74.7113 46.4665C74.6354 46.3999 74.5744 46.3056 74.5263 46.1853L73.7679 44.4651L74.1776 44.676H69.7716L70.1915 44.4651L69.4433 46.1853C69.3823 46.312 69.3166 46.4064 69.2491 46.4665C69.1807 46.5266 69.0919 46.5571 68.9818 46.5571ZM71.9746 40.3615L70.3247 44.1738L70.0787 43.9823H73.8706L73.6449 44.1738L71.995 40.3615H71.9746Z" fill="#141414"/>
<path d="M77.8425 46.5571C77.7056 46.5571 77.6002 46.5201 77.5243 46.4462C77.4559 46.3657 77.4226 46.2584 77.4226 46.1243V39.7585C77.4226 39.6179 77.4559 39.5107 77.5243 39.4367C77.6002 39.3627 77.7056 39.3257 77.8425 39.3257C77.9794 39.3257 78.0811 39.3627 78.1495 39.4367C78.2254 39.5107 78.2624 39.6179 78.2624 39.7585V46.1243C78.2624 46.2584 78.2282 46.3657 78.1597 46.4462C78.0913 46.5201 77.9859 46.5571 77.8425 46.5571Z" fill="#141414"/>
<path d="M81.2933 46.5557C81.1564 46.5557 81.051 46.5187 80.9761 46.4447C80.9076 46.3643 80.8734 46.257 80.8734 46.1228V39.8172C80.8734 39.6766 80.9104 39.5721 80.9862 39.5055C81.0612 39.4315 81.1675 39.3945 81.3035 39.3945H83.7321C84.5044 39.3945 85.0991 39.5721 85.5153 39.9282C85.9324 40.2833 86.1405 40.7892 86.1405 41.4468C86.1405 41.862 86.0452 42.2246 85.8538 42.5326C85.6697 42.8341 85.3959 43.0662 85.0343 43.2271C84.6718 43.3807 84.238 43.4584 83.7321 43.4584L83.8348 43.327H84.0401C84.3065 43.327 84.5386 43.3945 84.7365 43.5286C84.9344 43.6627 85.1157 43.8773 85.2803 44.1723L86.2635 45.9721C86.318 46.0664 86.3421 46.1599 86.3356 46.2542C86.3356 46.3411 86.3051 46.4151 86.2431 46.4752C86.1821 46.5289 86.0933 46.5557 85.9768 46.5557C85.8602 46.5557 85.765 46.5289 85.6901 46.4752C85.6142 46.4216 85.5495 46.3448 85.4949 46.244L84.3777 44.2121C84.2214 43.9245 84.0401 43.733 83.8348 43.6387C83.6304 43.5388 83.3603 43.4879 83.0255 43.4879H81.7132V46.1228C81.7132 46.257 81.6799 46.3643 81.6114 46.4447C81.543 46.5187 81.4366 46.5557 81.2933 46.5557ZM81.7132 42.8341H83.6091C84.1696 42.8341 84.5932 42.7203 84.8799 42.4928C85.1675 42.2579 85.3109 41.9092 85.3109 41.4468C85.3109 40.9973 85.1675 40.6588 84.8799 40.4304C84.5932 40.1964 84.1696 40.0789 83.6091 40.0789H81.7132V42.8341Z" fill="#141414"/>
<path d="M94.3471 46.5778C94.0262 46.5778 93.7118 46.551 93.4047 46.4973C93.0967 46.4437 92.81 46.366 92.5437 46.2661C92.2838 46.1653 92.048 46.0377 91.8362 45.8832C91.7548 45.8231 91.6965 45.7565 91.6623 45.6825C91.6345 45.6021 91.6281 45.5253 91.6419 45.4513C91.6623 45.3709 91.6965 45.3034 91.7446 45.2497C91.7992 45.1961 91.8639 45.1665 91.9388 45.1591C92.0137 45.1526 92.0961 45.1767 92.1848 45.2303C92.4928 45.4449 92.8202 45.6021 93.1689 45.7029C93.5176 45.7963 93.9097 45.8435 94.3471 45.8435C94.9622 45.8435 95.4163 45.7325 95.7104 45.5114C96.011 45.2839 96.1608 44.9852 96.1608 44.6162C96.1608 44.3147 96.0517 44.0798 95.8334 43.9124C95.6216 43.7385 95.2627 43.6007 94.7569 43.4999L93.6914 43.289C93.0496 43.1549 92.5677 42.9367 92.2468 42.6351C91.9324 42.3262 91.7751 41.9175 91.7751 41.4079C91.7751 41.0934 91.8399 40.8076 91.9693 40.5533C92.0998 40.2916 92.281 40.0705 92.5132 39.8893C92.7453 39.7015 93.0218 39.5572 93.3428 39.4573C93.6637 39.3565 94.0198 39.3057 94.4091 39.3057C94.8392 39.3057 95.2387 39.3667 95.6077 39.4869C95.9832 39.6007 96.3217 39.7755 96.6223 40.0104C96.6972 40.0705 96.749 40.1408 96.7758 40.2213C96.8036 40.2953 96.8063 40.3693 96.786 40.4423C96.7656 40.5098 96.7287 40.5662 96.6732 40.6134C96.626 40.6606 96.5612 40.6874 96.4789 40.6939C96.404 40.7004 96.318 40.6735 96.2228 40.6134C95.949 40.4127 95.666 40.2684 95.3719 40.1815C95.0787 40.0872 94.7541 40.04 94.3989 40.04C94.0364 40.04 93.7219 40.0936 93.4556 40.2009C93.1957 40.3082 92.9913 40.4664 92.8406 40.6735C92.6972 40.8751 92.626 41.1101 92.626 41.3783C92.626 41.7001 92.725 41.9544 92.9229 42.1422C93.1282 42.3299 93.4593 42.4677 93.9171 42.5547L94.9825 42.7757C95.6725 42.9163 96.1821 43.1309 96.5095 43.4194C96.8443 43.7015 97.0117 44.0872 97.0117 44.5764C97.0117 44.8714 96.9506 45.1424 96.8276 45.3912C96.7046 45.6391 96.527 45.8536 96.294 46.0349C96.0618 46.2088 95.7816 46.3429 95.4542 46.4372C95.1259 46.5306 94.7569 46.5778 94.3471 46.5778Z" fill="#141414"/>
<path d="M99.5963 46.4854C99.4455 46.4854 99.3299 46.4484 99.2476 46.3744C99.1727 46.2939 99.1348 46.1802 99.1348 46.0332V39.8477C99.1348 39.6998 99.1727 39.5897 99.2476 39.5157C99.3299 39.4352 99.4455 39.3945 99.5963 39.3945H103.409C103.525 39.3945 103.614 39.4251 103.675 39.4852C103.737 39.5453 103.767 39.6294 103.767 39.7367C103.767 39.8505 103.737 39.9384 103.675 39.9985C103.614 40.0586 103.525 40.0891 103.409 40.0891H99.9551V42.5428H103.193C103.31 42.5428 103.398 42.5733 103.459 42.6334C103.521 42.687 103.552 42.7712 103.552 42.885C103.552 42.9987 103.521 43.0856 103.459 43.1467C103.398 43.2068 103.31 43.2364 103.193 43.2364H99.9551V45.7918H103.409C103.525 45.7918 103.614 45.8214 103.675 45.8815C103.737 45.9425 103.767 46.0258 103.767 46.133C103.767 46.2477 103.737 46.3346 103.675 46.3948C103.614 46.4549 103.525 46.4854 103.409 46.4854H99.5963Z" fill="#141414"/>
<path d="M106.35 46.5557C106.213 46.5557 106.108 46.5187 106.033 46.4447C105.964 46.3643 105.93 46.257 105.93 46.1228V39.8172C105.93 39.6766 105.968 39.5721 106.043 39.5055C106.118 39.4315 106.224 39.3945 106.36 39.3945H108.789C109.561 39.3945 110.156 39.5721 110.572 39.9282C110.989 40.2833 111.197 40.7892 111.197 41.4468C111.197 41.862 111.102 42.2246 110.911 42.5326C110.726 42.8341 110.453 43.0662 110.091 43.2271C109.729 43.3807 109.295 43.4584 108.789 43.4584L108.892 43.327H109.097C109.363 43.327 109.595 43.3945 109.793 43.5286C109.991 43.6627 110.172 43.8773 110.337 44.1723L111.32 45.9721C111.375 46.0664 111.399 46.1599 111.392 46.2542C111.392 46.3411 111.362 46.4151 111.3 46.4752C111.239 46.5289 111.15 46.5557 111.034 46.5557C110.917 46.5557 110.822 46.5289 110.747 46.4752C110.671 46.4216 110.606 46.3448 110.552 46.244L109.434 44.2121C109.278 43.9245 109.097 43.733 108.892 43.6387C108.687 43.5388 108.417 43.4879 108.082 43.4879H106.77V46.1228C106.77 46.257 106.737 46.3643 106.668 46.4447C106.6 46.5187 106.493 46.5557 106.35 46.5557ZM106.77 42.8341H108.666C109.226 42.8341 109.65 42.7203 109.937 42.4928C110.224 42.2579 110.368 41.9092 110.368 41.4468C110.368 40.9973 110.224 40.6588 109.937 40.4304C109.65 40.1964 109.226 40.0789 108.666 40.0789H106.77V42.8341Z" fill="#141414"/>
<path d="M116.138 46.5571C116.009 46.5571 115.903 46.5266 115.821 46.4665C115.739 46.4064 115.674 46.3158 115.626 46.1955L112.808 39.8686C112.76 39.7548 112.747 39.6614 112.767 39.5874C112.788 39.5069 112.832 39.4431 112.9 39.396C112.975 39.3497 113.061 39.3257 113.157 39.3257C113.286 39.3257 113.382 39.3562 113.443 39.4163C113.512 39.47 113.566 39.5504 113.607 39.6577L116.313 45.8228H115.985L118.68 39.6475C118.728 39.5467 118.786 39.47 118.855 39.4163C118.923 39.3562 119.018 39.3257 119.141 39.3257C119.237 39.3257 119.315 39.3497 119.377 39.396C119.446 39.4431 119.486 39.5069 119.5 39.5874C119.52 39.6679 119.507 39.7613 119.459 39.8686L116.641 46.1955C116.593 46.3158 116.528 46.4064 116.446 46.4665C116.371 46.5266 116.269 46.5571 116.138 46.5571Z" fill="#141414"/>
<path d="M121.801 46.5571C121.664 46.5571 121.558 46.5201 121.483 46.4462C121.415 46.3657 121.381 46.2584 121.381 46.1243V39.7585C121.381 39.6179 121.415 39.5107 121.483 39.4367C121.558 39.3627 121.664 39.3257 121.801 39.3257C121.938 39.3257 122.039 39.3627 122.108 39.4367C122.184 39.5107 122.221 39.6179 122.221 39.7585V46.1243C122.221 46.2584 122.186 46.3657 122.118 46.4462C122.05 46.5201 121.944 46.5571 121.801 46.5571Z" fill="#141414"/>
<path d="M127.958 46.5778C127.247 46.5778 126.64 46.4298 126.134 46.1348C125.629 45.8398 125.239 45.4208 124.966 44.8779C124.699 44.335 124.566 43.6876 124.566 42.9366C124.566 42.3734 124.641 41.8703 124.792 41.4282C124.948 40.9787 125.171 40.6005 125.458 40.2916C125.751 39.9762 126.11 39.7348 126.533 39.5674C126.957 39.3935 127.432 39.3057 127.958 39.3057C128.381 39.3057 128.784 39.3667 129.167 39.4869C129.55 39.6007 129.881 39.7718 130.162 40.0002C130.25 40.0668 130.309 40.1445 130.335 40.2315C130.37 40.3119 130.373 40.3924 130.346 40.4728C130.325 40.5468 130.285 40.6106 130.223 40.6643C130.168 40.7105 130.1 40.7346 130.018 40.7346C129.936 40.7346 129.843 40.7004 129.742 40.6338C129.496 40.4395 129.226 40.2952 128.931 40.2009C128.637 40.1075 128.32 40.0604 127.979 40.0604C127.439 40.0604 126.981 40.1741 126.605 40.4025C126.23 40.6236 125.946 40.9491 125.755 41.3783C125.563 41.8074 125.468 42.3262 125.468 42.9366C125.468 43.547 125.563 44.0696 125.755 44.5061C125.946 44.9352 126.23 45.2636 126.605 45.4911C126.981 45.7131 127.439 45.8231 127.979 45.8231C128.314 45.8231 128.631 45.7759 128.931 45.6825C129.232 45.5817 129.509 45.4347 129.762 45.2395C129.864 45.1729 129.956 45.1424 130.039 45.1498C130.12 45.1498 130.188 45.1729 130.243 45.2201C130.298 45.2663 130.335 45.3274 130.356 45.4005C130.383 45.4744 130.383 45.5521 130.356 45.6326C130.335 45.7131 130.285 45.7834 130.202 45.8435C129.916 46.0849 129.577 46.2689 129.188 46.3965C128.805 46.5177 128.395 46.5778 127.958 46.5778Z" fill="#141414"/>
<path d="M133.009 46.4854C132.858 46.4854 132.742 46.4484 132.66 46.3744C132.585 46.2939 132.547 46.1802 132.547 46.0332V39.8477C132.547 39.6998 132.585 39.5897 132.66 39.5157C132.742 39.4352 132.858 39.3945 133.009 39.3945H136.821C136.937 39.3945 137.026 39.4251 137.088 39.4852C137.149 39.5453 137.179 39.6294 137.179 39.7367C137.179 39.8505 137.149 39.9384 137.088 39.9985C137.026 40.0586 136.937 40.0891 136.821 40.0891H133.367V42.5428H136.606C136.721 42.5428 136.81 42.5733 136.872 42.6334C136.933 42.687 136.964 42.7712 136.964 42.885C136.964 42.9987 136.933 43.0856 136.872 43.1467C136.81 43.2068 136.721 43.2364 136.606 43.2364H133.367V45.7918H136.821C136.937 45.7918 137.026 45.8214 137.088 45.8815C137.149 45.9425 137.179 46.0258 137.179 46.133C137.179 46.2477 137.149 46.3346 137.088 46.3948C137.026 46.4549 136.937 46.4854 136.821 46.4854H133.009Z" fill="#141414"/>
</g>
<path d="M51.8432 31.3659V26.4836H58.0332C59.5426 26.4836 60.8642 26.1885 61.9962 25.5994C63.1283 24.9862 64.0004 24.1021 64.6136 22.946C65.2268 21.7899 65.5338 20.422 65.5338 18.8424C65.5338 17.2618 65.2147 15.906 64.5784 14.774C63.9653 13.6419 63.0922 12.7698 61.9602 12.1566C60.8522 11.5434 59.5426 11.2364 58.0332 11.2364H51.6656V6.39014H58.1045C59.9912 6.39014 61.7243 6.69628 63.3049 7.30946C64.9086 7.89952 66.2996 8.75963 67.4788 9.89258C68.682 11.0006 69.6013 12.3213 70.2386 13.8547C70.8989 15.364 71.2291 17.038 71.2291 18.8776C71.2291 20.694 70.8989 22.3679 70.2386 23.9013C69.6013 25.4338 68.694 26.7546 67.5149 27.8635C66.3357 28.9714 64.9438 29.8325 63.3401 30.4456C61.7604 31.0588 60.0383 31.3659 58.1747 31.3659H51.8432ZM48.0929 31.3659V6.39014H53.6467V31.3659H48.0929Z" fill="#141414"/>
<path d="M103.581 31.3659V6.39014H109.135V31.3659H103.581ZM107.826 21.5661V16.7901H120.314V21.5661H107.826ZM107.826 11.1661V6.39014H120.88V11.1661H107.826Z" fill="#141414"/>
<path d="M125.863 31.3659V6.39014H131.417V31.3659H125.863Z" fill="#141414"/>
<path d="M153.491 31.3659L146.521 20.2223H145.85L136.228 6.39014H142.842L149.705 16.8613H150.378L160 31.3659H153.491ZM135.767 31.3659L145.001 17.9934L149.281 20.3989L142.099 31.3659H135.767ZM150.59 19.5851L146.309 17.1795L153.243 6.39014H159.575L150.59 19.5851Z" fill="#141414"/>
<path fill-rule="evenodd" clip-rule="evenodd" d="M87.3107 11.9809C83.2249 11.9809 79.9127 15.2932 79.9127 19.379C79.9127 23.4648 83.2249 26.777 87.3107 26.777C91.3966 26.777 94.7088 23.4648 94.7088 19.379C94.7088 15.2932 91.3966 11.9809 87.3107 11.9809ZM74.8322 19.379C74.8322 12.4872 80.419 6.90039 87.3107 6.90039C94.2025 6.90039 99.7893 12.4872 99.7893 19.379C99.7893 26.2707 94.2025 31.8576 87.3107 31.8576C80.419 31.8576 74.8322 26.2707 74.8322 19.379Z" fill="#141414"/>
<path fill-rule="evenodd" clip-rule="evenodd" d="M7.21524 14.0883C11.7193 8.98405 17.1898 4.23214 19.3355 0C29.9103 9.71468 17.7669 13.6878 11.1884 22.8125C7.23929 28.283 7.77017 34.1189 12.5683 38.8698C2.64092 34.8504 3.12461 22.3297 7.21524 14.0883Z" fill="url(#paint0_linear_1813_660)"/>
<path fill-rule="evenodd" clip-rule="evenodd" d="M8.33479 45.9905C3.31283 42.6184 0 36.8881 0 30.3808C0 25.2635 1.7563 21.2201 4.23214 17.8009C5.14035 16.5514 6.15398 15.3139 7.22681 14.0996C2.99468 22.5408 5.83584 37.6427 16.3403 40.2721C19.4414 41.0499 23.0132 40.5782 25.5602 38.8811C30.6996 35.4388 30.6414 30.2744 29.1672 25.0046C35.4275 28.4589 33.9653 42.2763 25.1829 48.3951C19.5829 50.0099 13.157 49.2201 8.33479 45.9905Z" fill="url(#paint1_linear_1813_660)"/>
<path fill-rule="evenodd" clip-rule="evenodd" d="M27.835 23.3199C23.2255 28.0588 20.4666 30.9832 17.2241 36.3233C11.6481 33.6588 11.5649 29.1908 14.4653 25.1705C17.2361 21.3157 22.3524 16.7645 25.866 13.1575C27.0451 11.9543 27.4456 11.2237 27.3633 9.60889C29.816 12.167 32.4565 15.0433 34.4486 17.8022C36.9013 21.2214 38.6696 25.2648 38.6696 30.3821C38.6696 36.8894 35.3568 42.6197 30.3339 45.9908C28.7663 47.0406 27.0211 47.8424 25.1945 48.3724C31.5603 41.9474 32.9513 30.936 27.835 23.3199Z" fill="url(#paint2_linear_1813_660)"/>
<defs>
<linearGradient id="paint0_linear_1813_660" x1="-29.7327" y1="56.4319" x2="51.661" y2="-9.47974" gradientUnits="userSpaceOnUse">
<stop stop-color="#0B4789"/>
<stop offset="1" stop-color="#55AEFB"/>
</linearGradient>
<linearGradient id="paint1_linear_1813_660" x1="30.388" y1="46.3817" x2="8.8934" y2="26.3373" gradientUnits="userSpaceOnUse">
<stop stop-color="#0B4789"/>
<stop offset="1" stop-color="#55AEFB"/>
</linearGradient>
<linearGradient id="paint2_linear_1813_660" x1="17.9899" y1="18.9028" x2="34.8204" y2="38.9601" gradientUnits="userSpaceOnUse">
<stop stop-color="#55AEFB"/>
<stop offset="1" stop-color="#0B4789"/>
</linearGradient>
</defs>
</svg>
