<svg width="160" height="47" viewBox="0 0 160 47" fill="none" xmlns="http://www.w3.org/2000/svg">
<g opacity="0.8">
<path d="M48.5124 44.4692C48.3765 44.4692 48.2701 44.4339 48.1952 44.3632C48.1267 44.2864 48.0925 44.1839 48.0925 44.0558V38.0331C48.0925 37.8988 48.1304 37.799 48.2054 37.7354C48.2803 37.6647 48.3866 37.6294 48.5226 37.6294H50.9513C51.7235 37.6294 52.3182 37.799 52.7344 38.1391C53.1515 38.4783 53.3596 38.9615 53.3596 39.5896C53.3596 39.9862 53.2643 40.3325 53.0729 40.6266C52.8888 40.9146 52.6151 41.1363 52.2534 41.29C51.8909 41.4367 51.4572 41.5109 50.9513 41.5109L51.0539 41.3854H51.2592C51.5256 41.3854 51.7577 41.4499 51.9557 41.578C52.1545 41.7061 52.3348 41.911 52.4995 42.1928L53.4826 43.9118C53.5372 44.0019 53.5612 44.0912 53.5547 44.1813C53.5547 44.2643 53.5242 44.335 53.4622 44.3924C53.4012 44.4436 53.3124 44.4692 53.1959 44.4692C53.0803 44.4692 52.9841 44.4436 52.9092 44.3924C52.8343 44.3412 52.7686 44.2678 52.714 44.1716L51.5977 42.2308C51.4405 41.9561 51.2592 41.7732 51.0539 41.6831C50.8495 41.5877 50.5795 41.5391 50.2447 41.5391H48.9332V44.0558C48.9332 44.1839 48.899 44.2864 48.8306 44.3632C48.7621 44.4339 48.6558 44.4692 48.5124 44.4692ZM48.9332 40.9146H50.8292C51.3887 40.9146 51.8123 40.806 52.0999 40.5887C52.3866 40.3643 52.53 40.0312 52.53 39.5896C52.53 39.1602 52.3866 38.8369 52.0999 38.6188C51.8123 38.3953 51.3887 38.2831 50.8292 38.2831H48.9332V40.9146Z" fill="white"/>
<path d="M56.2286 44.4021C56.0788 44.4021 55.9623 44.3668 55.8809 44.2961C55.8051 44.2192 55.7681 44.1106 55.7681 43.9701V38.0623C55.7681 37.9209 55.8051 37.8158 55.8809 37.7451C55.9623 37.6683 56.0788 37.6294 56.2286 37.6294H60.0409C60.1574 37.6294 60.2462 37.6586 60.3073 37.716C60.3692 37.7734 60.3998 37.8538 60.3998 37.9562C60.3998 38.0649 60.3692 38.1488 60.3073 38.2062C60.2462 38.2637 60.1574 38.2928 60.0409 38.2928H56.5875V40.6364H59.8263C59.9419 40.6364 60.0307 40.6655 60.0927 40.7229C60.1537 40.7742 60.1843 40.8546 60.1843 40.9632C60.1843 41.0719 60.1537 41.1549 60.0927 41.2132C60.0307 41.2706 59.9419 41.2989 59.8263 41.2989H56.5875V43.7396H60.0409C60.1574 43.7396 60.2462 43.7679 60.3073 43.8253C60.3692 43.8836 60.3998 43.9631 60.3998 44.0656C60.3998 44.1751 60.3692 44.2581 60.3073 44.3155C60.2462 44.373 60.1574 44.4021 60.0409 44.4021H56.2286Z" fill="white"/>
<path d="M62.9826 44.4692C62.8457 44.4692 62.7393 44.4339 62.6644 44.3632C62.596 44.2864 62.5618 44.1839 62.5618 44.0558V38.0331C62.5618 37.8988 62.5997 37.799 62.6746 37.7354C62.7495 37.6647 62.8559 37.6294 62.9927 37.6294H65.4214C66.1927 37.6294 66.7874 37.8087 67.2045 38.1674C67.6207 38.5198 67.8297 39.0198 67.8297 39.6664C67.8297 40.3069 67.6207 40.806 67.2045 41.1646C66.7874 41.5233 66.1927 41.7026 65.4214 41.7026H63.4025V44.0558C63.4025 44.1839 63.3682 44.2864 63.2998 44.3632C63.2314 44.4339 63.1259 44.4692 62.9826 44.4692ZM63.4025 41.0401H65.3188C65.8718 41.0401 66.2889 40.9243 66.5692 40.6938C66.8559 40.457 66.9992 40.1143 66.9992 39.6664C66.9992 39.2115 66.8559 38.8687 66.5692 38.6382C66.2889 38.4014 65.8718 38.2831 65.3188 38.2831H63.4025V41.0401Z" fill="white"/>
<path d="M68.9821 44.469C68.8729 44.469 68.7841 44.4469 68.7157 44.4019C68.6546 44.3506 68.6167 44.2861 68.6038 44.2093C68.5964 44.1262 68.6167 44.0335 68.6648 43.931L71.4829 37.918C71.5448 37.7899 71.616 37.6998 71.6983 37.6486C71.7871 37.5912 71.8824 37.562 71.985 37.562C72.0877 37.562 72.1802 37.5912 72.2616 37.6486C72.3504 37.6998 72.4225 37.7899 72.4771 37.918L75.3053 43.931C75.3598 44.0335 75.3802 44.1262 75.3672 44.2093C75.3598 44.2932 75.3256 44.3568 75.2646 44.4019C75.2026 44.4469 75.1175 44.469 75.0084 44.469C74.8854 44.469 74.7864 44.4398 74.7115 44.3824C74.6357 44.3188 74.5746 44.2287 74.5266 44.1139L73.7682 42.4708L74.1779 42.6722H69.7719L70.1918 42.4708L69.4435 44.1139C69.3825 44.2349 69.3168 44.325 69.2493 44.3824C69.1809 44.4398 69.0921 44.469 68.9821 44.469ZM71.9749 38.5514L70.3249 42.1926L70.0789 42.0097H73.8708L73.6452 42.1926L71.9952 38.5514H71.9749Z" fill="white"/>
<path d="M77.8423 44.469C77.7054 44.469 77.5999 44.4337 77.5241 44.363C77.4557 44.2861 77.4224 44.1837 77.4224 44.0556V37.9754C77.4224 37.8411 77.4557 37.7387 77.5241 37.668C77.5999 37.5973 77.7054 37.562 77.8423 37.562C77.9791 37.562 78.0809 37.5973 78.1493 37.668C78.2251 37.7387 78.2621 37.8411 78.2621 37.9754V44.0556C78.2621 44.1837 78.2279 44.2861 78.1595 44.363C78.091 44.4337 77.9856 44.469 77.8423 44.469Z" fill="white"/>
<path d="M81.2937 44.4692C81.1568 44.4692 81.0513 44.4339 80.9764 44.3632C80.908 44.2864 80.8738 44.1839 80.8738 44.0558V38.0331C80.8738 37.8988 80.9108 37.799 80.9866 37.7354C81.0615 37.6647 81.1679 37.6294 81.3038 37.6294H83.7325C84.5047 37.6294 85.0994 37.799 85.5156 38.1391C85.9327 38.4783 86.1408 38.9615 86.1408 39.5896C86.1408 39.9862 86.0456 40.3325 85.8541 40.6266C85.6701 40.9146 85.3963 41.1363 85.0347 41.29C84.6722 41.4367 84.2384 41.5109 83.7325 41.5109L83.8352 41.3854H84.0405C84.3068 41.3854 84.539 41.4499 84.7369 41.578C84.9348 41.7061 85.1161 41.911 85.2807 42.1928L86.2638 43.9118C86.3184 44.0019 86.3424 44.0912 86.336 44.1813C86.336 44.2643 86.3055 44.335 86.2435 44.3924C86.1824 44.4436 86.0937 44.4692 85.9771 44.4692C85.8606 44.4692 85.7653 44.4436 85.6904 44.3924C85.6146 44.3412 85.5498 44.2678 85.4953 44.1716L84.378 42.2308C84.2217 41.9561 84.0405 41.7732 83.8352 41.6831C83.6308 41.5877 83.3607 41.5391 83.0259 41.5391H81.7135V44.0558C81.7135 44.1839 81.6802 44.2864 81.6118 44.3632C81.5434 44.4339 81.437 44.4692 81.2937 44.4692ZM81.7135 40.9146H83.6095C84.17 40.9146 84.5935 40.806 84.8802 40.5887C85.1679 40.3643 85.3112 40.0312 85.3112 39.5896C85.3112 39.1602 85.1679 38.8369 84.8802 38.6188C84.5935 38.3953 84.17 38.2831 83.6095 38.2831H81.7135V40.9146Z" fill="white"/>
<path d="M94.347 44.4888C94.0261 44.4888 93.7117 44.4632 93.4046 44.412C93.0966 44.3607 92.8099 44.2865 92.5436 44.1911C92.2837 44.0948 92.0478 43.9729 91.836 43.8254C91.7547 43.768 91.6964 43.7044 91.6622 43.6337C91.6344 43.5569 91.6279 43.4835 91.6418 43.4129C91.6622 43.336 91.6964 43.2715 91.7445 43.2203C91.7991 43.1691 91.8638 43.1408 91.9387 43.1338C92.0136 43.1276 92.0959 43.1505 92.1847 43.2018C92.4927 43.4067 92.8201 43.5569 93.1688 43.6532C93.5174 43.7424 93.9096 43.7874 94.347 43.7874C94.9621 43.7874 95.4162 43.6814 95.7103 43.4703C96.0108 43.253 96.1607 42.9677 96.1607 42.6152C96.1607 42.3272 96.0515 42.1029 95.8333 41.943C95.6215 41.7769 95.2626 41.6453 94.7567 41.549L93.6913 41.3476C93.0495 41.2195 92.5676 41.011 92.2467 40.7231C91.9322 40.428 91.775 40.0376 91.775 39.5509C91.775 39.2505 91.8397 38.9775 91.9692 38.7346C92.0996 38.4846 92.2809 38.2735 92.513 38.1004C92.7452 37.9211 93.0217 37.7832 93.3426 37.6878C93.6636 37.5916 94.0196 37.543 94.409 37.543C94.8391 37.543 95.2386 37.6013 95.6076 37.7161C95.9831 37.8248 96.3216 37.9917 96.6222 38.2161C96.6971 38.2735 96.7489 38.3406 96.7757 38.4175C96.8034 38.4882 96.8062 38.5588 96.7859 38.6286C96.7655 38.6931 96.7285 38.747 96.673 38.792C96.6259 38.8371 96.5611 38.8627 96.4788 38.8689C96.4039 38.8751 96.3179 38.8495 96.2226 38.792C95.9489 38.6004 95.6659 38.4625 95.3718 38.3795C95.0786 38.2894 94.754 38.2444 94.3988 38.2444C94.0363 38.2444 93.7218 38.2956 93.4555 38.398C93.1956 38.5005 92.9912 38.6516 92.8404 38.8495C92.6971 39.042 92.6259 39.2664 92.6259 39.5226C92.6259 39.83 92.7248 40.0729 92.9228 40.2522C93.1281 40.4315 93.4592 40.5632 93.917 40.6462L94.9824 40.8573C95.6723 40.9916 96.1819 41.1965 96.5093 41.4721C96.8441 41.7416 97.0115 42.1099 97.0115 42.5772C97.0115 42.859 96.9505 43.1178 96.8275 43.3555C96.7045 43.5922 96.5269 43.7971 96.2938 43.9703C96.0617 44.1364 95.7815 44.2644 95.4541 44.3545C95.1258 44.4438 94.7567 44.4888 94.347 44.4888Z" fill="white"/>
<path d="M99.5965 44.4021C99.4458 44.4021 99.3301 44.3668 99.2478 44.2961C99.1729 44.2192 99.135 44.1106 99.135 43.9701V38.0623C99.135 37.9209 99.1729 37.8158 99.2478 37.7451C99.3301 37.6683 99.4458 37.6294 99.5965 37.6294H103.409C103.525 37.6294 103.614 37.6586 103.675 37.716C103.737 37.7734 103.768 37.8538 103.768 37.9562C103.768 38.0649 103.737 38.1488 103.675 38.2062C103.614 38.2637 103.525 38.2928 103.409 38.2928H99.9554V40.6364H103.193C103.31 40.6364 103.399 40.6655 103.46 40.7229C103.522 40.7742 103.552 40.8546 103.552 40.9632C103.552 41.0719 103.522 41.1549 103.46 41.2132C103.399 41.2706 103.31 41.2989 103.193 41.2989H99.9554V43.7396H103.409C103.525 43.7396 103.614 43.7679 103.675 43.8253C103.737 43.8836 103.768 43.9631 103.768 44.0656C103.768 44.1751 103.737 44.2581 103.675 44.3155C103.614 44.373 103.525 44.4021 103.409 44.4021H99.5965Z" fill="white"/>
<path d="M106.35 44.4692C106.213 44.4692 106.108 44.4339 106.033 44.3632C105.964 44.2864 105.93 44.1839 105.93 44.0558V38.0331C105.93 37.8988 105.968 37.799 106.043 37.7354C106.118 37.6647 106.224 37.6294 106.36 37.6294H108.789C109.561 37.6294 110.156 37.799 110.572 38.1391C110.989 38.4783 111.197 38.9615 111.197 39.5896C111.197 39.9862 111.102 40.3325 110.911 40.6266C110.726 40.9146 110.453 41.1363 110.091 41.29C109.729 41.4367 109.295 41.5109 108.789 41.5109L108.892 41.3854H109.097C109.363 41.3854 109.595 41.4499 109.793 41.578C109.991 41.7061 110.172 41.911 110.337 42.1928L111.32 43.9118C111.375 44.0019 111.399 44.0912 111.392 44.1813C111.392 44.2643 111.362 44.335 111.3 44.3924C111.239 44.4436 111.15 44.4692 111.034 44.4692C110.917 44.4692 110.822 44.4436 110.747 44.3924C110.671 44.3412 110.606 44.2678 110.552 44.1716L109.434 42.2308C109.278 41.9561 109.097 41.7732 108.892 41.6831C108.687 41.5877 108.417 41.5391 108.082 41.5391H106.77V44.0558C106.77 44.1839 106.737 44.2864 106.668 44.3632C106.6 44.4339 106.493 44.4692 106.35 44.4692ZM106.77 40.9146H108.666C109.226 40.9146 109.65 40.806 109.937 40.5887C110.224 40.3643 110.368 40.0312 110.368 39.5896C110.368 39.1602 110.224 38.8369 109.937 38.6188C109.65 38.3953 109.226 38.2831 108.666 38.2831H106.77V40.9146Z" fill="white"/>
<path d="M116.138 44.469C116.009 44.469 115.904 44.4398 115.821 44.3824C115.739 44.325 115.674 44.2384 115.626 44.1236L112.808 38.0805C112.76 37.9719 112.747 37.8827 112.767 37.812C112.788 37.7351 112.832 37.6742 112.901 37.6291C112.975 37.585 113.061 37.562 113.157 37.562C113.286 37.562 113.382 37.5912 113.443 37.6486C113.512 37.6998 113.566 37.7767 113.607 37.8791L116.313 43.7676H115.985L118.68 37.8694C118.728 37.7731 118.786 37.6998 118.855 37.6486C118.923 37.5912 119.018 37.562 119.141 37.562C119.237 37.562 119.315 37.585 119.377 37.6291C119.446 37.6742 119.486 37.7351 119.5 37.812C119.521 37.8888 119.507 37.9781 119.459 38.0805L116.641 44.1236C116.593 44.2384 116.528 44.325 116.446 44.3824C116.371 44.4398 116.269 44.469 116.138 44.469Z" fill="white"/>
<path d="M121.8 44.469C121.664 44.469 121.558 44.4337 121.482 44.363C121.415 44.2861 121.381 44.1837 121.381 44.0556V37.9754C121.381 37.8411 121.415 37.7387 121.482 37.668C121.558 37.5973 121.664 37.562 121.8 37.562C121.937 37.562 122.039 37.5973 122.108 37.668C122.183 37.7387 122.22 37.8411 122.22 37.9754V44.0556C122.22 44.1837 122.186 44.2861 122.118 44.363C122.05 44.4337 121.944 44.469 121.8 44.469Z" fill="white"/>
<path d="M127.958 44.4888C127.247 44.4888 126.64 44.3475 126.134 44.0657C125.629 43.7839 125.239 43.3837 124.966 42.8652C124.699 42.3467 124.566 41.7283 124.566 41.011C124.566 40.4731 124.641 39.9925 124.792 39.5703C124.948 39.141 125.171 38.7797 125.458 38.4846C125.751 38.1834 126.11 37.9528 126.533 37.7929C126.957 37.6269 127.432 37.543 127.958 37.543C128.381 37.543 128.784 37.6013 129.167 37.7161C129.55 37.8248 129.881 37.9882 130.162 38.2064C130.25 38.27 130.309 38.3442 130.335 38.4272C130.37 38.5041 130.373 38.5809 130.346 38.6578C130.325 38.7284 130.285 38.7894 130.223 38.8406C130.168 38.8848 130.1 38.9078 130.018 38.9078C129.936 38.9078 129.843 38.8751 129.742 38.8115C129.496 38.626 129.226 38.4882 128.931 38.398C128.637 38.3088 128.32 38.2638 127.979 38.2638C127.439 38.2638 126.981 38.3724 126.605 38.5906C126.23 38.8018 125.946 39.1127 125.755 39.5226C125.563 39.9325 125.468 40.428 125.468 41.011C125.468 41.594 125.563 42.0931 125.755 42.5101C125.946 42.92 126.23 43.2336 126.605 43.4509C126.981 43.6629 127.439 43.768 127.979 43.768C128.314 43.768 128.631 43.7229 128.931 43.6337C129.232 43.5374 129.509 43.397 129.762 43.2106C129.864 43.147 129.956 43.1178 130.039 43.1249C130.12 43.1249 130.188 43.147 130.243 43.192C130.298 43.2362 130.335 43.2945 130.356 43.3643C130.383 43.435 130.383 43.5092 130.356 43.586C130.335 43.6629 130.285 43.73 130.202 43.7874C129.916 44.018 129.577 44.1938 129.188 44.3157C128.805 44.4314 128.395 44.4888 127.958 44.4888Z" fill="white"/>
<path d="M133.009 44.4021C132.858 44.4021 132.742 44.3668 132.66 44.2961C132.585 44.2192 132.547 44.1106 132.547 43.9701V38.0623C132.547 37.9209 132.585 37.8158 132.66 37.7451C132.742 37.6683 132.858 37.6294 133.009 37.6294H136.821C136.937 37.6294 137.026 37.6586 137.088 37.716C137.149 37.7734 137.179 37.8538 137.179 37.9562C137.179 38.0649 137.149 38.1488 137.088 38.2062C137.026 38.2637 136.937 38.2928 136.821 38.2928H133.367V40.6364H136.606C136.721 40.6364 136.81 40.6655 136.872 40.7229C136.933 40.7742 136.964 40.8546 136.964 40.9632C136.964 41.0719 136.933 41.1549 136.872 41.2132C136.81 41.2706 136.721 41.2989 136.606 41.2989H133.367V43.7396H136.821C136.937 43.7396 137.026 43.7679 137.088 43.8253C137.149 43.8836 137.179 43.9631 137.179 44.0656C137.179 44.1751 137.149 44.2581 137.088 44.3155C137.026 44.373 136.937 44.4021 136.821 44.4021H133.009Z" fill="white"/>
</g>
<path d="M51.8428 29.9586V25.2954H58.0329C59.5422 25.2954 60.8639 25.0136 61.9959 24.4509C63.1279 23.8652 64 23.0207 64.6132 21.9165C65.2264 20.8123 65.5334 19.5058 65.5334 17.997C65.5334 16.4874 65.2144 15.1924 64.5781 14.1112C63.9649 13.0299 63.0918 12.1969 61.9598 11.6113C60.8518 11.0256 59.5422 10.7323 58.0329 10.7323H51.6653V6.10352H58.1041C59.9908 6.10352 61.724 6.39591 63.3045 6.98158C64.9082 7.54516 66.2992 8.36668 67.4784 9.4488C68.6816 10.5071 69.601 11.7685 70.2382 13.2331C70.8985 14.6747 71.2287 16.2736 71.2287 18.0306C71.2287 19.7655 70.8985 21.3644 70.2382 22.829C69.601 24.2927 68.6937 25.5542 67.5145 26.6133C66.3353 27.6716 64.9434 28.494 63.3397 29.0797C61.76 29.6653 60.038 29.9586 58.1744 29.9586H51.8428ZM48.0925 29.9586V6.10352H53.6463V29.9586H48.0925Z" fill="white"/>
<path d="M103.581 29.9586V6.10352H109.136V29.9586H103.581ZM107.826 20.5985V16.0369H120.314V20.5985H107.826ZM107.826 10.6652V6.10352H120.88V10.6652H107.826Z" fill="white"/>
<path d="M125.862 29.9586V6.10352H131.417V29.9586H125.862Z" fill="white"/>
<path d="M153.491 29.9586L146.521 19.315H145.85L136.228 6.10352H142.842L149.706 16.1049H150.378L160 29.9586H153.491ZM135.767 29.9586L145.001 17.1861L149.281 19.4837L142.1 29.9586H135.767ZM150.59 18.7064L146.309 16.4088L153.243 6.10352H159.576L150.59 18.7064Z" fill="white"/>
<path fill-rule="evenodd" clip-rule="evenodd" d="M87.3111 11.442C83.2253 11.442 79.9131 14.6055 79.9131 18.508C79.9131 22.4105 83.2253 25.5741 87.3111 25.5741C91.3969 25.5741 94.7091 22.4105 94.7091 18.508C94.7091 14.6055 91.3969 11.442 87.3111 11.442ZM74.8325 18.508C74.8325 11.9255 80.4194 6.58936 87.3111 6.58936C94.2028 6.58936 99.7897 11.9255 99.7897 18.508C99.7897 25.0905 94.2028 30.4267 87.3111 30.4267C80.4194 30.4267 74.8325 25.0905 74.8325 18.508Z" fill="white"/>
<path fill-rule="evenodd" clip-rule="evenodd" d="M7.21475 13.4562C11.7188 8.58094 17.1893 4.04225 19.335 0C29.9098 9.2788 17.7664 13.0737 11.1879 21.7889C7.23881 27.014 7.76968 32.588 12.5678 37.1258C2.64043 33.2867 3.12412 21.3278 7.21475 13.4562Z" fill="url(#paint0_linear_1813_629)"/>
<path fill-rule="evenodd" clip-rule="evenodd" d="M8.33479 43.9277C3.31282 40.707 0 35.2337 0 29.0184C0 24.1308 1.7563 20.2687 4.23214 17.003C5.14035 15.8095 6.15398 14.6276 7.22681 13.4678C2.99468 21.5302 5.83583 35.9546 16.3403 38.4659C19.4414 39.2088 23.0132 38.7583 25.5602 37.1373C30.6996 33.8495 30.6414 28.9168 29.1672 23.8834C35.4275 27.1828 33.9653 40.3802 25.1829 46.2245C19.5829 47.7668 13.157 47.0124 8.33479 43.9277Z" fill="url(#paint1_linear_1813_629)"/>
<path fill-rule="evenodd" clip-rule="evenodd" d="M27.8355 22.274C23.226 26.8003 20.4671 29.5935 17.2246 34.694C11.6486 32.1491 11.5654 27.8816 14.4658 24.0416C17.2366 20.3598 22.3529 16.0128 25.8664 12.5677C27.0456 11.4184 27.4461 10.7206 27.3638 9.17822C29.8165 11.6216 32.457 14.3688 34.4491 17.0039C36.9018 20.2697 38.6701 24.1317 38.6701 29.0193C38.6701 35.2347 35.3573 40.7079 30.3344 43.9278C28.7668 44.9304 27.0216 45.6963 25.195 46.2024C31.5608 40.0657 32.9517 29.5485 27.8355 22.274Z" fill="url(#paint2_linear_1813_629)"/>
<defs>
<linearGradient id="paint0_linear_1813_629" x1="-29.7332" y1="53.8999" x2="48.6745" y2="-12.5764" gradientUnits="userSpaceOnUse">
<stop stop-color="#0B4789"/>
<stop offset="1" stop-color="#55AEFB"/>
</linearGradient>
<linearGradient id="paint1_linear_1813_629" x1="30.388" y1="44.3014" x2="9.81363" y2="24.2139" gradientUnits="userSpaceOnUse">
<stop stop-color="#0B4789"/>
<stop offset="1" stop-color="#55AEFB"/>
</linearGradient>
<linearGradient id="paint2_linear_1813_629" x1="17.9904" y1="18.0551" x2="33.9219" y2="37.933" gradientUnits="userSpaceOnUse">
<stop stop-color="#55AEFB"/>
<stop offset="1" stop-color="#0B4789"/>
</linearGradient>
</defs>
</svg>
