<svg width="200" height="62" viewBox="0 0 200 62" fill="none" xmlns="http://www.w3.org/2000/svg">
<g opacity="0.8">
<path d="M60.6406 58.5848C60.4706 58.5848 60.3377 58.5385 60.244 58.446C60.1585 58.3455 60.1157 58.2113 60.1157 58.0437V50.1616C60.1157 49.9859 60.1631 49.8553 60.2568 49.772C60.3504 49.6795 60.4833 49.6333 60.6533 49.6333H63.6891C64.6544 49.6333 65.3978 49.8553 65.918 50.3003C66.4394 50.7443 66.6995 51.3766 66.6995 52.1986C66.6995 52.7177 66.5804 53.1709 66.3411 53.5558C66.1111 53.9327 65.7689 54.2229 65.3169 54.4241C64.8637 54.616 64.3215 54.7131 63.6891 54.7131L63.8174 54.5489H64.0741C64.407 54.5489 64.6972 54.6333 64.9446 54.8009C65.1932 54.9686 65.4186 55.2368 65.6244 55.6056L66.8533 57.8553C66.9215 57.9732 66.9516 58.09 66.9435 58.2079C66.9435 58.3166 66.9053 58.409 66.8279 58.4842C66.7515 58.5512 66.6406 58.5848 66.4949 58.5848C66.3504 58.5848 66.2302 58.5512 66.1365 58.4842C66.0429 58.4171 65.9608 58.3212 65.8926 58.1952L64.4972 55.6553C64.3007 55.2957 64.0741 55.0564 63.8174 54.9385C63.562 54.8137 63.2244 54.7501 62.8059 54.7501H61.1666V58.0437C61.1666 58.2113 61.1238 58.3455 61.0383 58.446C60.9527 58.5385 60.8198 58.5848 60.6406 58.5848ZM61.1666 53.9327H63.5365C64.2359 53.9327 64.7654 53.7905 65.125 53.5061C65.4833 53.2125 65.6625 52.7766 65.6625 52.1986C65.6625 51.6368 65.4833 51.2136 65.125 50.9281C64.7654 50.6356 64.2359 50.4888 63.5365 50.4888H61.1666V53.9327Z" fill="#141414"/>
<path d="M70.2858 58.4969C70.0985 58.4969 69.9529 58.4506 69.8511 58.3581C69.7563 58.2576 69.7101 58.1154 69.7101 57.9316V50.1998C69.7101 50.0148 69.7563 49.8772 69.8511 49.7848C69.9529 49.6842 70.0985 49.6333 70.2858 49.6333H75.0511C75.1968 49.6333 75.3078 49.6715 75.3841 49.7466C75.4615 49.8218 75.4997 49.9269 75.4997 50.061C75.4997 50.2032 75.4615 50.3131 75.3841 50.3882C75.3078 50.4634 75.1968 50.5015 75.0511 50.5015H70.7344V53.5686H74.7829C74.9274 53.5686 75.0384 53.6067 75.1159 53.6819C75.1922 53.7489 75.2303 53.8541 75.2303 53.9963C75.2303 54.1385 75.1922 54.2472 75.1159 54.3235C75.0384 54.3986 74.9274 54.4356 74.7829 54.4356H70.7344V57.6299H75.0511C75.1968 57.6299 75.3078 57.6668 75.3841 57.742C75.4615 57.8183 75.4997 57.9223 75.4997 58.0564C75.4997 58.1998 75.4615 58.3084 75.3841 58.3836C75.3078 58.4587 75.1968 58.4969 75.0511 58.4969H70.2858Z" fill="#141414"/>
<path d="M78.7284 58.5848C78.5573 58.5848 78.4243 58.5385 78.3307 58.446C78.2452 58.3455 78.2024 58.2113 78.2024 58.0437V50.1616C78.2024 49.9859 78.2498 49.8553 78.3434 49.772C78.4371 49.6795 78.57 49.6333 78.7411 49.6333H81.7769C82.7411 49.6333 83.4845 49.868 84.0058 50.3374C84.5261 50.7986 84.7874 51.453 84.7874 52.2992C84.7874 53.1373 84.5261 53.7905 84.0058 54.2599C83.4845 54.7293 82.7411 54.964 81.7769 54.964H79.2533V58.0437C79.2533 58.2113 79.2105 58.3455 79.1249 58.446C79.0394 58.5385 78.9076 58.5848 78.7284 58.5848ZM79.2533 54.0969H81.6486C82.34 54.0969 82.8613 53.9454 83.2116 53.6437C83.57 53.3339 83.7492 52.8853 83.7492 52.2992C83.7492 51.7038 83.57 51.2553 83.2116 50.9535C82.8613 50.6437 82.34 50.4888 81.6486 50.4888H79.2533V54.0969Z" fill="#141414"/>
<path d="M86.2277 58.5862C86.0913 58.5862 85.9803 58.5573 85.8948 58.4983C85.8185 58.4313 85.7711 58.3469 85.7549 58.2463C85.7457 58.1376 85.7711 58.0162 85.8312 57.8821L89.3537 50.0128C89.4312 49.8451 89.5202 49.7272 89.6231 49.6602C89.7341 49.585 89.8532 49.5469 89.9815 49.5469C90.1098 49.5469 90.2254 49.585 90.3272 49.6602C90.4381 49.7272 90.5283 49.8451 90.5965 50.0128L94.1318 57.8821C94.2 58.0162 94.2254 58.1376 94.2092 58.2463C94.2 58.3561 94.1572 58.4394 94.0809 58.4983C94.0035 58.5573 93.8971 58.5862 93.7607 58.5862C93.6069 58.5862 93.4832 58.548 93.3896 58.4729C93.2948 58.3897 93.2185 58.2717 93.1584 58.1214L92.2104 55.9712L92.7225 56.2347H87.215L87.7399 55.9712L86.8046 58.1214C86.7283 58.2798 86.6462 58.3977 86.5619 58.4729C86.4763 58.548 86.3653 58.5862 86.2277 58.5862ZM89.9688 50.8417L87.9064 55.607L87.5988 55.3677H92.3387L92.0566 55.607L89.9942 50.8417H89.9688Z" fill="#141414"/>
<path d="M97.3029 58.5862C97.1318 58.5862 97 58.5399 96.9052 58.4475C96.8197 58.3469 96.7781 58.2127 96.7781 58.0451V50.0879C96.7781 49.9122 96.8197 49.7781 96.9052 49.6856C97 49.5931 97.1318 49.5469 97.3029 49.5469C97.474 49.5469 97.6012 49.5931 97.6867 49.6856C97.7815 49.7781 97.8278 49.9122 97.8278 50.0879V58.0451C97.8278 58.2127 97.785 58.3469 97.6995 58.4475C97.6139 58.5399 97.4821 58.5862 97.3029 58.5862Z" fill="#141414"/>
<path d="M101.617 58.5848C101.446 58.5848 101.314 58.5385 101.22 58.446C101.135 58.3455 101.092 58.2113 101.092 58.0437V50.1616C101.092 49.9859 101.138 49.8553 101.233 49.772C101.327 49.6795 101.46 49.6333 101.63 49.6333H104.665C105.631 49.6333 106.374 49.8553 106.894 50.3003C107.416 50.7443 107.676 51.3766 107.676 52.1986C107.676 52.7177 107.557 53.1709 107.317 53.5558C107.087 53.9327 106.745 54.2229 106.293 54.4241C105.84 54.616 105.298 54.7131 104.665 54.7131L104.794 54.5489H105.05C105.383 54.5489 105.674 54.6333 105.921 54.8009C106.168 54.9686 106.395 55.2368 106.601 55.6056L107.83 57.8553C107.898 57.9732 107.928 58.09 107.92 58.2079C107.92 58.3166 107.882 58.409 107.804 58.4842C107.728 58.5512 107.617 58.5848 107.471 58.5848C107.326 58.5848 107.206 58.5512 107.113 58.4842C107.018 58.4171 106.937 58.3212 106.869 58.1952L105.472 55.6553C105.277 55.2957 105.05 55.0564 104.794 54.9385C104.538 54.8137 104.201 54.7501 103.782 54.7501H102.142V58.0437C102.142 58.2113 102.1 58.3455 102.015 58.446C101.929 58.5385 101.796 58.5848 101.617 58.5848ZM102.142 53.9327H104.512C105.212 53.9327 105.742 53.7905 106.1 53.5061C106.46 53.2125 106.639 52.7766 106.639 52.1986C106.639 51.6368 106.46 51.2136 106.1 50.9281C105.742 50.6356 105.212 50.4888 104.512 50.4888H102.142V53.9327Z" fill="#141414"/>
<path d="M117.934 58.6102C117.533 58.6102 117.139 58.5767 116.756 58.5096C116.371 58.4426 116.012 58.3454 115.679 58.2206C115.354 58.0946 115.06 57.935 114.795 57.742C114.693 57.6668 114.62 57.5836 114.578 57.4911C114.543 57.3905 114.535 57.2946 114.552 57.2021C114.578 57.1015 114.62 57.0171 114.68 56.9501C114.749 56.883 114.83 56.846 114.923 56.8368C115.017 56.8287 115.12 56.8587 115.231 56.9258C115.616 57.194 116.025 57.3905 116.461 57.5165C116.897 57.6333 117.387 57.6923 117.934 57.6923C118.702 57.6923 119.27 57.5535 119.638 57.2772C120.013 56.9928 120.201 56.6194 120.201 56.1582C120.201 55.7813 120.064 55.4876 119.791 55.2784C119.527 55.061 119.078 54.8888 118.446 54.7628L117.114 54.4992C116.312 54.3316 115.709 54.0588 115.308 53.6819C114.915 53.2957 114.719 52.7848 114.719 52.1478C114.719 51.7547 114.8 51.3975 114.961 51.0796C115.124 50.7524 115.351 50.4761 115.641 50.2495C115.931 50.0148 116.277 49.8345 116.678 49.7096C117.079 49.5836 117.524 49.52 118.011 49.52C118.549 49.52 119.048 49.5963 119.509 49.7466C119.979 49.8888 120.402 50.1073 120.778 50.4009C120.871 50.4761 120.936 50.5639 120.969 50.6645C121.004 50.757 121.008 50.8495 120.982 50.9408C120.957 51.0252 120.911 51.0957 120.841 51.1547C120.782 51.2137 120.701 51.2472 120.598 51.2553C120.505 51.2634 120.397 51.2298 120.278 51.1547C119.936 50.9038 119.582 50.7235 119.215 50.6148C118.848 50.4969 118.442 50.4379 117.998 50.4379C117.545 50.4379 117.152 50.505 116.819 50.6391C116.494 50.7732 116.239 50.9709 116.05 51.2298C115.871 51.4819 115.782 51.7755 115.782 52.1108C115.782 52.5131 115.906 52.831 116.153 53.0657C116.41 53.3003 116.824 53.4726 117.396 53.5813L118.728 53.8576C119.59 54.0333 120.227 54.3015 120.637 54.6622C121.055 55.0148 121.264 55.4969 121.264 56.1085C121.264 56.4772 121.188 56.816 121.034 57.1269C120.88 57.4368 120.659 57.705 120.367 57.9316C120.077 58.1489 119.727 58.3165 119.317 58.4345C118.907 58.5512 118.446 58.6102 117.934 58.6102Z" fill="#141414"/>
<path d="M124.495 58.4969C124.307 58.4969 124.163 58.4506 124.06 58.3581C123.966 58.2576 123.919 58.1154 123.919 57.9316V50.1998C123.919 50.0148 123.966 49.8772 124.06 49.7848C124.163 49.6842 124.307 49.6333 124.495 49.6333H129.261C129.406 49.6333 129.517 49.6715 129.594 49.7466C129.671 49.8218 129.709 49.9269 129.709 50.061C129.709 50.2032 129.671 50.3131 129.594 50.3882C129.517 50.4634 129.406 50.5015 129.261 50.5015H124.944V53.5686H128.991C129.137 53.5686 129.248 53.6067 129.324 53.6819C129.402 53.7489 129.44 53.8541 129.44 53.9963C129.44 54.1385 129.402 54.2472 129.324 54.3235C129.248 54.3986 129.137 54.4356 128.991 54.4356H124.944V57.6299H129.261C129.406 57.6299 129.517 57.6668 129.594 57.742C129.671 57.8183 129.709 57.9223 129.709 58.0564C129.709 58.1998 129.671 58.3084 129.594 58.3836C129.517 58.4587 129.406 58.4969 129.261 58.4969H124.495Z" fill="#141414"/>
<path d="M132.937 58.5848C132.766 58.5848 132.634 58.5385 132.541 58.446C132.455 58.3455 132.412 58.2113 132.412 58.0437V50.1616C132.412 49.9859 132.46 49.8553 132.553 49.772C132.647 49.6795 132.78 49.6333 132.95 49.6333H135.986C136.951 49.6333 137.694 49.8553 138.215 50.3003C138.736 50.7443 138.996 51.3766 138.996 52.1986C138.996 52.7177 138.877 53.1709 138.638 53.5558C138.408 53.9327 138.066 54.2229 137.614 54.4241C137.16 54.616 136.618 54.7131 135.986 54.7131L136.114 54.5489H136.371C136.704 54.5489 136.994 54.6333 137.241 54.8009C137.489 54.9686 137.715 55.2368 137.921 55.6056L139.15 57.8553C139.218 57.9732 139.248 58.09 139.24 58.2079C139.24 58.3166 139.202 58.409 139.124 58.4842C139.048 58.5512 138.937 58.5848 138.792 58.5848C138.646 58.5848 138.527 58.5512 138.433 58.4842C138.338 58.4171 138.257 58.3212 138.189 58.1952L136.793 55.6553C136.597 55.2957 136.371 55.0564 136.114 54.9385C135.859 54.8137 135.521 54.7501 135.103 54.7501H133.462V58.0437C133.462 58.2113 133.42 58.3455 133.335 58.446C133.249 58.5385 133.116 58.5848 132.937 58.5848ZM133.462 53.9327H135.832C136.533 53.9327 137.062 53.7905 137.42 53.5061C137.78 53.2125 137.959 52.7766 137.959 52.1986C137.959 51.6368 137.78 51.2136 137.42 50.9281C137.062 50.6356 136.533 50.4888 135.832 50.4888H133.462V53.9327Z" fill="#141414"/>
<path d="M145.173 58.5862C145.012 58.5862 144.88 58.548 144.777 58.4729C144.674 58.3977 144.593 58.2845 144.533 58.1342L141.01 50.2255C140.95 50.0833 140.934 49.9665 140.96 49.874C140.985 49.7735 141.041 49.6937 141.126 49.6347C141.22 49.5769 141.327 49.5469 141.446 49.5469C141.608 49.5469 141.728 49.585 141.805 49.6602C141.89 49.7272 141.958 49.8278 142.009 49.9619L145.392 57.6682H144.982L148.35 49.9492C148.41 49.8232 148.483 49.7272 148.569 49.6602C148.654 49.585 148.773 49.5469 148.927 49.5469C149.046 49.5469 149.145 49.5769 149.222 49.6347C149.308 49.6937 149.358 49.7735 149.376 49.874C149.401 49.9746 149.384 50.0914 149.324 50.2255L145.801 58.1342C145.742 58.2845 145.66 58.3977 145.558 58.4729C145.465 58.548 145.336 58.5862 145.173 58.5862Z" fill="#141414"/>
<path d="M152.251 58.5862C152.079 58.5862 151.948 58.5399 151.853 58.4475C151.768 58.3469 151.726 58.2127 151.726 58.0451V50.0879C151.726 49.9122 151.768 49.7781 151.853 49.6856C151.948 49.5931 152.079 49.5469 152.251 49.5469C152.422 49.5469 152.549 49.5931 152.634 49.6856C152.729 49.7781 152.775 49.9122 152.775 50.0879V58.0451C152.775 58.2127 152.733 58.3469 152.647 58.4475C152.563 58.5399 152.43 58.5862 152.251 58.5862Z" fill="#141414"/>
<path d="M159.946 58.6102C159.058 58.6102 158.299 58.4252 157.667 58.0564C157.035 57.6876 156.547 57.1639 156.206 56.4853C155.873 55.8067 155.707 54.9975 155.707 54.0587C155.707 53.3547 155.801 52.7258 155.989 52.1732C156.184 51.6114 156.463 51.1385 156.821 50.7524C157.188 50.3582 157.636 50.0564 158.166 49.8472C158.695 49.6298 159.29 49.52 159.946 49.52C160.476 49.52 160.98 49.5963 161.458 49.7466C161.937 49.8888 162.351 50.1027 162.701 50.3882C162.812 50.4715 162.885 50.5686 162.919 50.6773C162.961 50.7778 162.966 50.8784 162.931 50.979C162.906 51.0715 162.855 51.1512 162.778 51.2183C162.709 51.2761 162.624 51.3062 162.522 51.3062C162.419 51.3062 162.304 51.2634 162.176 51.1801C161.869 50.9374 161.531 50.757 161.164 50.6391C160.796 50.5223 160.4 50.4634 159.973 50.4634C159.298 50.4634 158.726 50.6056 158.256 50.8911C157.787 51.1674 157.432 51.5744 157.193 52.1108C156.953 52.6472 156.834 53.2957 156.834 54.0587C156.834 54.8217 156.953 55.4749 157.193 56.0206C157.432 56.557 157.787 56.9674 158.256 57.2518C158.726 57.5292 159.298 57.6668 159.973 57.6668C160.391 57.6668 160.788 57.6079 161.164 57.4911C161.539 57.3651 161.885 57.1813 162.202 56.9373C162.329 56.8541 162.445 56.816 162.547 56.8252C162.649 56.8252 162.735 56.8541 162.803 56.9131C162.872 56.9709 162.919 57.0472 162.944 57.1385C162.979 57.231 162.979 57.3281 162.944 57.4287C162.919 57.5293 162.855 57.6171 162.752 57.6923C162.394 57.994 161.971 58.2241 161.484 58.3836C161.005 58.535 160.493 58.6102 159.946 58.6102Z" fill="#141414"/>
<path d="M166.261 58.4969C166.073 58.4969 165.927 58.4506 165.825 58.3581C165.732 58.2576 165.684 58.1154 165.684 57.9316V50.1998C165.684 50.0148 165.732 49.8772 165.825 49.7848C165.927 49.6842 166.073 49.6333 166.261 49.6333H171.027C171.171 49.6333 171.282 49.6715 171.359 49.7466C171.436 49.8218 171.474 49.9269 171.474 50.061C171.474 50.2032 171.436 50.3131 171.359 50.3882C171.282 50.4634 171.171 50.5015 171.027 50.5015H166.709V53.5686H170.757C170.902 53.5686 171.013 53.6067 171.09 53.6819C171.166 53.7489 171.206 53.8541 171.206 53.9963C171.206 54.1385 171.166 54.2472 171.09 54.3235C171.013 54.3986 170.902 54.4356 170.757 54.4356H166.709V57.6299H171.027C171.171 57.6299 171.282 57.6668 171.359 57.742C171.436 57.8183 171.474 57.9223 171.474 58.0564C171.474 58.1998 171.436 58.3084 171.359 58.3836C171.282 58.4587 171.171 58.4969 171.027 58.4969H166.261Z" fill="#141414"/>
</g>
<path d="M64.8036 39.5937V33.4908H72.5411C74.4278 33.4908 76.0799 33.122 77.4949 32.3856C78.9099 31.6191 80.0001 30.5139 80.7666 29.0688C81.533 27.6237 81.9169 25.9139 81.9169 23.9393C81.9169 21.9636 81.518 20.2688 80.7226 18.8538C79.9562 17.4388 78.8648 16.3486 77.4498 15.5821C76.0648 14.8157 74.4278 14.4318 72.5411 14.4318H64.5816V8.37402H72.6302C74.9885 8.37402 77.155 8.7567 79.1307 9.52318C81.1353 10.2607 82.8741 11.3359 84.3481 12.7521C85.8521 14.137 87.0012 15.7879 87.7978 17.7047C88.6232 19.5914 89.0359 21.6839 89.0359 23.9833C89.0359 26.2538 88.6232 28.3463 87.7978 30.263C87.0012 32.1786 85.8671 33.8295 84.3931 35.2156C82.9192 36.6006 81.1793 37.6769 79.1746 38.4434C77.2001 39.2098 75.0475 39.5937 72.718 39.5937H64.8036ZM60.1157 39.5937V8.37402H67.0579V39.5937H60.1157Z" fill="#141414"/>
<path d="M129.476 39.5937V8.37402H136.42V39.5937H129.476ZM134.783 27.3439V21.374H150.393V27.3439H134.783ZM134.783 14.344V8.37402H151.101V14.344H134.783Z" fill="#141414"/>
<path d="M157.328 39.5937V8.37402H164.271V39.5937H157.328Z" fill="#141414"/>
<path d="M191.864 39.5937L183.151 25.6642H182.312L170.284 8.37402H178.553L187.132 21.463H187.972L200 39.5937H191.864ZM169.709 39.5937L181.251 22.878L186.601 25.885L177.624 39.5937H169.709ZM188.237 24.8676L182.887 21.8607L191.554 8.37402H199.469L188.237 24.8676Z" fill="#141414"/>
<path fill-rule="evenodd" clip-rule="evenodd" d="M109.139 15.3629C104.031 15.3629 99.8911 19.5032 99.8911 24.6104C99.8911 29.7177 104.031 33.858 109.139 33.858C114.246 33.858 118.386 29.7177 118.386 24.6104C118.386 19.5032 114.246 15.3629 109.139 15.3629ZM93.5404 24.6104C93.5404 15.9958 100.524 9.01221 109.139 9.01221C117.753 9.01221 124.737 15.9958 124.737 24.6104C124.737 33.2251 117.753 40.2087 109.139 40.2087C100.524 40.2087 93.5404 33.2251 93.5404 24.6104Z" fill="#141414"/>
<path fill-rule="evenodd" clip-rule="evenodd" d="M9.01832 17.9971C14.6484 11.6168 21.4865 5.67689 24.1686 0.386719C37.3871 12.5301 22.2079 17.4965 13.9848 28.9023C9.04838 35.7404 9.71197 43.0353 15.7096 48.974C3.30042 43.9497 3.90503 28.2988 9.01832 17.9971Z" fill="url(#paint0_linear_1813_630)"/>
<path fill-rule="evenodd" clip-rule="evenodd" d="M10.4185 57.8767C4.14103 53.6617 0 46.4987 0 38.3646C0 31.9681 2.19538 26.9137 5.29017 22.6398C6.42543 21.0779 7.69247 19.5311 9.03351 18.0132C3.74334 28.5646 7.29479 47.4421 20.4254 50.7288C24.3017 51.701 28.7664 51.1114 31.9502 48.99C38.3745 44.6871 38.3017 38.2316 36.4589 31.6444C44.2843 35.9623 42.4566 53.234 31.4786 60.8825C24.4786 62.901 16.4462 61.9137 10.4185 57.8767Z" fill="url(#paint1_linear_1813_630)"/>
<path fill-rule="evenodd" clip-rule="evenodd" d="M34.794 29.5371C29.0322 35.4608 25.5836 39.1163 21.5305 45.7915C14.5605 42.4608 14.4565 36.8759 18.0819 31.8504C21.5455 27.0319 27.9409 21.3429 32.3328 16.8342C33.8068 15.3302 34.3073 14.4169 34.2045 12.3984C37.2704 15.5961 40.5709 19.1915 43.0611 22.64C46.127 26.914 48.3374 31.9684 48.3374 38.3649C48.3374 46.499 44.1963 53.662 37.9177 57.8758C35.9582 59.188 33.7767 60.1903 31.4935 60.8527C39.4507 52.8215 41.1894 39.0574 34.794 29.5371Z" fill="url(#paint2_linear_1813_630)"/>
<defs>
<linearGradient id="paint0_linear_1813_630" x1="-37.1666" y1="70.9266" x2="64.5756" y2="-11.4629" gradientUnits="userSpaceOnUse">
<stop stop-color="#0B4789"/>
<stop offset="1" stop-color="#55AEFB"/>
</linearGradient>
<linearGradient id="paint1_linear_1813_630" x1="37.9849" y1="58.3658" x2="11.1167" y2="33.3103" gradientUnits="userSpaceOnUse">
<stop stop-color="#0B4789"/>
<stop offset="1" stop-color="#55AEFB"/>
</linearGradient>
<linearGradient id="paint2_linear_1813_630" x1="22.4877" y1="24.0158" x2="43.5258" y2="49.0874" gradientUnits="userSpaceOnUse">
<stop stop-color="#55AEFB"/>
<stop offset="1" stop-color="#0B4789"/>
</linearGradient>
</defs>
</svg>
